<?xml version="1.0" standalone="no"?>
<!DOCTYPE svg PUBLIC "-//W3C//DTD SVG 20010904//EN"
 "http://www.w3.org/TR/2001/REC-SVG-20010904/DTD/svg10.dtd">
<svg version="1.0" xmlns="http://www.w3.org/2000/svg"
 width="400.000000pt" height="400.000000pt" viewBox="0 0 400.000000 400.000000"
 preserveAspectRatio="xMidYMid meet">
<metadata>
Created by potrace 1.16, written by Peter Selinger 2001-2019
</metadata>
<g transform="translate(0.000000,400.000000) scale(0.100000,-0.100000)"
fill="#000000" stroke="none">
<path d="M2123 3975 c26 -15 37 -45 16 -45 -16 0 -36 -24 -31 -38 2 -7 -6 -12
-21 -12 -20 0 -27 -6 -32 -31 -4 -17 -13 -33 -21 -36 -20 -7 -18 -17 11 -51
14 -17 25 -33 25 -36 0 -3 -18 -6 -40 -6 -33 0 -42 4 -52 25 -15 33 -24 32
-23 -2 0 -24 -4 -28 -32 -31 -32 -3 -33 -3 -34 40 -4 114 -12 143 -24 82 -5
-28 -9 -34 -16 -23 -6 9 -9 10 -9 2 0 -7 -20 -18 -45 -24 -56 -14 -58 -29 -5
-29 36 0 40 -3 40 -25 0 -25 -17 -32 -100 -38 l-35 -2 -10 73 c-7 52 -15 76
-27 83 -10 6 -18 15 -18 22 0 14 -49 39 -61 32 -4 -3 -6 -15 -4 -28 7 -42 36
-151 43 -161 15 -21 7 -39 -21 -49 -25 -8 -35 -4 -89 39 -41 32 -59 42 -54 29
11 -26 27 -97 24 -101 -2 -1 -16 -4 -32 -6 -27 -3 -30 1 -46 47 -16 47 -18 48
-21 21 -2 -16 -10 -31 -17 -32 -7 -1 -8 0 -2 3 5 2 10 9 10 15 0 6 -6 6 -15
-2 -8 -7 -15 -10 -15 -6 0 4 -18 -3 -40 -14 -22 -11 -40 -22 -40 -25 0 -12 55
5 67 20 7 11 14 16 14 12 1 -4 3 -11 4 -17 1 -5 3 -17 4 -25 0 -8 5 -15 10
-15 5 0 7 9 4 20 -3 11 0 20 6 20 5 0 8 -7 5 -15 -4 -8 -1 -15 6 -15 6 0 10
-5 8 -11 -2 -6 -7 -10 -11 -10 -3 0 -36 -14 -73 -30 -36 -17 -68 -28 -70 -26
-2 2 -24 47 -49 101 -25 53 -50 94 -55 91 -12 -7 -2 -35 13 -35 6 0 7 -3 3 -7
-4 -5 -19 6 -33 22 -29 35 -14 3 16 -35 14 -17 21 -20 21 -10 0 12 3 11 11 -3
6 -9 8 -27 5 -40 -3 -12 -3 -16 0 -9 3 6 10 10 15 6 15 -9 10 -22 -8 -27 -13
-3 -12 -5 5 -6 14 -1 21 -5 16 -12 -3 -6 0 -15 7 -20 10 -6 11 -9 2 -9 -7 0
-13 -5 -13 -11 0 -5 5 -7 11 -3 8 4 8 0 0 -15 -7 -11 -16 -21 -21 -21 -5 0 -7
-8 -4 -17 5 -15 4 -16 -5 -3 -9 13 -11 13 -11 -2 0 -10 3 -18 8 -18 15 0 62
37 55 44 -4 4 0 4 8 1 9 -3 33 3 53 15 187 104 669 190 875 155 45 -7 50 -1
24 27 -9 10 -11 18 -5 18 6 0 16 -8 21 -17 9 -15 12 -15 19 -5 5 8 12 13 16
13 3 -1 6 1 6 4 0 3 0 10 0 15 0 16 -70 12 -76 -5 -8 -19 -44 -19 -70 0 -10 8
-14 15 -7 15 7 0 10 7 6 17 -4 10 -2 14 4 10 5 -3 26 26 45 66 29 57 34 75 25
86 -10 12 -9 13 2 6 11 -6 12 -2 7 21 -9 36 -6 33 -47 39 l-34 6 28 -16z"/>
<path d="M1536 3926 c-27 -12 -28 -14 -10 -24 16 -10 14 -11 -18 -12 -20 0
-38 5 -40 12 -3 9 -24 6 -81 -11 -42 -13 -74 -27 -72 -31 3 -4 -13 -10 -35
-14 -22 -3 -40 -11 -40 -17 0 -5 -4 -7 -10 -4 -5 3 -10 -3 -10 -14 0 -12 5
-21 10 -21 6 0 10 4 10 10 0 5 7 7 15 3 10 -3 15 -1 13 7 -2 7 3 15 10 17 8 3
10 -1 6 -11 -3 -9 -1 -16 5 -16 6 0 11 6 11 13 0 8 3 7 9 -3 6 -8 7 -18 5 -22
-3 -4 2 -8 11 -8 11 0 15 -5 11 -15 -5 -13 5 -20 27 -16 4 0 7 -3 7 -9 0 -5
-5 -10 -11 -10 -5 0 -7 -5 -3 -11 15 -25 26 22 15 64 -11 45 -8 51 25 61 15 5
31 -1 53 -19 17 -15 35 -24 41 -20 6 4 9 3 8 -2 -2 -4 1 -9 7 -10 5 -1 12 -10
16 -20 15 -36 10 13 -6 56 -14 40 -13 41 8 46 12 3 30 19 39 35 19 33 16 34
-26 16z"/>
<path d="M1850 3643 c-363 -36 -707 -198 -978 -458 -178 -171 -299 -346 -388
-561 -88 -213 -124 -403 -124 -658 0 -177 13 -268 67 -446 109 -369 361 -697
709 -922 68 -44 264 -139 349 -170 44 -16 65 -26 46 -23 -111 17 -414 166
-522 256 -26 22 -49 39 -52 39 -3 0 -53 46 -111 103 -75 73 -109 100 -117 93
-7 -8 -8 -6 -4 7 5 12 2 17 -9 17 -9 0 -16 -5 -16 -11 0 -5 -3 -8 -7 -6 -5 3
-13 -1 -20 -8 -10 -11 -10 -15 0 -18 9 -4 9 -6 0 -6 -7 -1 -13 -10 -13 -22 0
-11 4 -17 10 -14 6 4 10 -6 10 -22 0 -19 3 -24 9 -15 6 10 15 6 35 -18 14 -17
26 -38 26 -45 0 -9 6 -12 15 -8 9 3 15 2 14 -3 -4 -22 2 -34 16 -34 9 0 18 -7
22 -16 3 -8 20 -30 37 -48 26 -27 34 -30 53 -21 13 5 23 17 23 25 0 9 3 11 8
5 4 -5 27 -17 52 -25 30 -10 52 -26 67 -49 31 -46 29 -61 -7 -61 -23 0 -33 6
-40 24 -11 31 -26 39 -55 32 -26 -7 -49 -39 -42 -59 2 -7 11 2 20 18 9 17 16
24 17 18 0 -7 7 -13 16 -13 8 0 35 -15 58 -33 47 -36 47 -45 -4 -80 -74 -51
-196 31 -174 118 5 21 3 24 -12 19 -18 -5 -18 -5 -1 9 12 10 14 17 8 22 -6 3
-11 1 -11 -4 0 -18 -13 -13 -44 15 -23 22 -30 24 -38 13 -6 -10 -7 -6 -2 11 6
22 5 23 -9 12 -20 -17 -2 -73 21 -64 10 4 13 1 8 -7 -5 -8 0 -18 13 -28 15
-10 20 -21 15 -35 -4 -12 -2 -18 4 -15 5 4 8 -4 6 -18 -3 -28 0 -29 25 -15 15
8 17 6 14 -14 -4 -19 7 -31 65 -71 43 -29 75 -44 83 -40 7 5 10 4 5 -3 -3 -6
3 -16 16 -23 15 -8 23 -9 26 -1 2 6 10 8 18 5 8 -3 14 0 14 6 0 6 -9 11 -19
11 -11 0 -23 4 -26 10 -3 6 1 7 9 4 11 -4 16 0 16 12 1 14 5 12 17 -10 14 -27
14 -30 -1 -41 -8 -7 -13 -15 -9 -18 3 -4 13 -1 21 6 13 10 15 9 9 -6 -4 -11
-1 -17 9 -17 9 0 12 5 8 12 -4 8 -3 10 2 5 5 -5 9 -14 9 -20 0 -7 8 -11 18 -9
9 2 16 -2 15 -9 -2 -6 3 -14 11 -17 9 -3 11 0 6 8 -5 8 -3 11 6 8 8 -3 14 -11
14 -19 0 -8 5 -14 10 -15 6 0 33 -11 60 -23 55 -26 153 -61 163 -59 4 1 16 -2
27 -6 62 -24 73 -27 81 -25 5 1 20 -3 34 -9 85 -39 445 -64 630 -43 148 17
212 31 206 48 -6 16 10 18 19 2 5 -6 13 -2 22 11 10 14 22 20 34 17 11 -3 16
-1 13 4 -3 6 4 18 15 29 15 12 18 19 9 22 -7 3 -21 -5 -30 -17 -34 -44 -136
-49 -165 -8 -12 16 -13 16 -13 0 0 -9 -6 -17 -13 -17 -24 0 -27 12 -8 29 12
11 16 22 11 36 -6 17 -9 14 -26 -20 l-19 -40 -3 49 c-3 47 10 72 30 60 11 -7
10 24 -2 46 -8 16 -3 21 34 39 24 12 51 19 60 15 11 -4 19 1 25 17 5 13 10 20
11 14 0 -5 4 -5 8 2 5 8 13 9 22 3 13 -8 12 -10 -2 -10 -10 0 -18 -5 -18 -11
0 -6 7 -8 16 -5 9 3 18 6 20 6 2 0 4 7 4 15 0 8 -6 15 -12 15 -9 0 -8 4 2 10
21 14 30 12 24 -4 -3 -8 0 -17 6 -21 6 -4 8 -20 4 -42 -5 -27 -4 -35 7 -31 7
2 15 10 17 18 3 7 0 10 -7 6 -6 -4 -11 -2 -11 4 0 6 8 9 18 6 25 -8 43 7 48
42 5 28 2 32 -18 31 -22 0 -22 -1 -3 -9 19 -8 19 -9 -2 -9 -13 -1 -23 -5 -23
-11 0 -5 -4 -10 -9 -10 -4 0 -8 10 -7 22 1 28 61 45 71 21 4 -11 13 -13 33 -8
35 9 40 14 22 25 -22 14 -30 12 -24 -5 4 -8 1 -15 -6 -15 -6 0 -8 4 -5 10 3 5
0 10 -7 10 -8 1 -7 4 4 10 11 7 25 7 42 0 17 -6 27 -6 32 2 4 7 3 8 -4 4 -7
-4 -12 -1 -12 7 0 7 28 26 63 42 235 108 491 316 648 530 63 86 179 295 216
390 67 172 95 354 97 620 1 175 -2 213 -22 305 -84 380 -283 707 -576 949 -42
34 -180 122 -266 169 -271 147 -644 225 -940 195z m-928 -514 c-3 -22 -1 -30
7 -25 6 4 11 16 11 27 0 12 4 19 9 17 13 -4 123 -148 176 -228 84 -129 159
-186 321 -250 80 -31 116 -40 163 -40 51 0 61 3 62 18 1 14 2 13 7 -3 l5 -20
7 20 c4 11 2 28 -4 37 -8 13 -7 21 2 30 9 9 12 8 12 -5 0 -13 4 -15 18 -8 9 5
25 12 34 15 9 2 24 20 33 40 9 19 22 37 29 39 17 7 66 -4 66 -14 0 -23 29 -4
59 37 22 31 27 45 16 40 -9 -3 -24 -6 -33 -7 -11 0 -13 -2 -4 -6 20 -8 -6 -33
-34 -33 -32 0 -30 13 4 40 l27 22 -36 -21 c-43 -25 -74 -28 -44 -5 11 9 43 27
70 40 50 24 50 33 0 14 -15 -6 -33 -6 -42 -2 -13 8 -13 10 1 15 10 4 15 3 11
-3 -9 -15 0 -12 45 11 49 26 141 35 198 20 48 -13 120 -70 89 -71 -10 0 -15
-5 -12 -10 12 -20 -15 -39 -48 -34 -27 4 -25 2 16 -17 50 -23 55 -30 34 -47
-9 -8 -29 -4 -72 15 -82 35 -117 39 -136 17 -8 -11 -9 -15 -1 -10 22 13 13
-21 -10 -37 l-23 -16 22 6 c13 3 29 -1 38 -11 9 -9 26 -16 38 -16 23 0 60 -19
42 -21 -5 -1 -35 0 -66 1 -31 1 -75 -4 -98 -10 -24 -6 -45 -9 -47 -7 -3 3 7
19 21 36 42 49 17 36 -32 -16 -26 -29 -43 -41 -43 -32 0 9 20 35 45 58 43 40
50 55 11 26 -13 -10 -22 -11 -26 -5 -8 13 -50 -70 -50 -99 0 -22 0 -22 28 -2
15 10 43 22 62 25 l35 6 -35 -30 c-19 -17 -29 -29 -22 -25 6 3 12 1 12 -4 0
-6 -7 -11 -15 -11 -7 0 -18 -6 -22 -14 -4 -7 -28 -20 -52 -28 -24 -8 -51 -25
-60 -38 -12 -19 -13 -22 -2 -15 11 6 13 4 8 -8 -4 -11 -2 -14 9 -10 7 3 14 0
14 -6 0 -6 7 -11 15 -11 8 0 15 7 15 16 0 8 4 13 10 9 6 -4 6 -15 0 -31 -18
-46 -9 -40 15 11 14 31 25 44 28 35 3 -8 14 -44 25 -80 l20 -65 -3 115 c-2 63
-1 102 1 85 3 -16 8 -37 11 -45 3 -8 5 -27 4 -41 -1 -17 7 -37 23 -54 29 -31
36 -81 11 -71 -11 4 -15 -1 -15 -19 0 -13 4 -26 10 -30 19 -12 -2 -32 -35 -33
-23 -1 -38 4 -44 15 -7 14 -12 15 -24 5 -11 -10 -17 -9 -27 3 -12 14 -15 14
-31 -1 -11 -10 -23 -13 -31 -7 -7 4 -30 8 -52 9 -24 0 -41 6 -47 17 -8 14 -12
13 -37 -10 -22 -21 -28 -22 -30 -9 -2 9 -8 14 -13 11 -14 -9 -11 -53 5 -78 13
-20 12 -28 -15 -84 -16 -34 -34 -83 -40 -110 -15 -66 -31 -97 -52 -101 -16 -3
-15 2 7 47 33 63 32 67 -1 43 -45 -31 -111 -62 -133 -62 -19 0 -18 3 10 42 16
22 30 44 30 48 0 4 -25 -6 -56 -22 -31 -15 -68 -28 -81 -28 l-24 0 31 44 c40
59 38 71 -8 47 -36 -18 -66 -25 -105 -22 -15 1 -11 11 22 58 23 31 39 58 38
60 -2 2 -20 -4 -40 -12 -48 -20 -70 -19 -120 6 -70 35 -73 40 -36 60 l33 17
-32 16 c-17 9 -37 16 -43 16 -21 0 -59 42 -59 66 0 37 -17 72 -42 85 l-23 12
23 -25 c13 -14 20 -32 17 -40 -4 -9 -2 -19 4 -23 6 -3 11 -15 11 -25 0 -14 -5
-18 -17 -13 -15 6 -16 4 -6 -9 7 -8 11 -17 9 -19 -2 -2 -6 -17 -10 -33 -6 -25
-5 -28 13 -23 12 3 24 0 28 -5 4 -7 1 -8 -6 -3 -10 6 -11 3 -2 -14 7 -11 14
-21 17 -21 3 0 2 4 -1 10 -3 5 -2 18 4 27 9 17 10 16 9 -2 0 -11 3 -29 7 -39
6 -14 5 -17 -4 -12 -9 6 -10 3 -3 -10 27 -53 34 -73 27 -85 -6 -8 -4 -10 5 -4
10 6 12 3 8 -13 -4 -14 -2 -19 7 -16 7 3 15 -2 18 -10 4 -9 14 -16 24 -16 15
0 16 -2 3 -10 -12 -8 -11 -11 8 -16 18 -5 20 -9 10 -15 -9 -6 -6 -9 10 -9 13
0 21 -4 18 -8 -3 -5 6 -15 19 -22 13 -7 22 -17 19 -21 -2 -4 5 -14 17 -22 15
-11 17 -16 7 -20 -7 -3 -4 -6 8 -6 11 -1 29 -10 39 -21 18 -19 17 -20 -1 -20
-29 0 -89 35 -89 53 0 8 -18 29 -40 47 -22 17 -40 37 -40 42 0 6 -8 12 -18 14
-15 2 -15 -1 5 -29 l21 -32 -34 30 c-18 17 -26 21 -16 9 9 -11 15 -23 13 -25
-3 -3 10 -24 29 -48 19 -24 32 -47 29 -52 -3 -5 2 -12 10 -15 9 -3 16 -12 16
-20 0 -7 9 -18 21 -25 14 -7 19 -17 16 -31 -4 -14 0 -22 14 -25 10 -3 17 -9
14 -13 -3 -5 3 -11 13 -14 10 -4 32 -20 48 -37 l29 -31 -25 7 c-28 8 -44 20
-114 85 -66 59 -19 6 93 -108 46 -46 79 -88 75 -94 -4 -6 4 -19 17 -29 24 -18
24 -18 2 -16 -12 0 -19 5 -17 9 3 5 -7 16 -23 24 -16 9 -43 38 -61 63 -45 63
-184 211 -176 186 4 -11 -12 4 -35 32 -24 29 -47 53 -52 53 -5 0 -9 4 -9 10 0
5 -20 50 -44 100 -25 50 -48 100 -51 113 l-7 22 20 -20 c11 -11 46 -69 77
-130 32 -60 62 -114 67 -120 6 -5 3 5 -7 23 -24 48 -13 49 19 3 15 -22 37 -48
48 -58 11 -10 -3 14 -32 52 -28 39 -74 108 -102 155 -28 47 -57 93 -66 103 -9
10 -11 17 -4 17 10 0 32 -26 80 -96 7 -11 6 -5 -2 11 -8 17 -29 50 -45 75 -17
25 -31 50 -31 57 0 20 32 7 58 -23 l24 -29 -25 45 c-18 34 -25 62 -26 115 -2
87 -11 100 -11 17 0 -58 -13 -83 -23 -44 -3 9 -5 -9 -6 -41 -1 -68 -16 -68
-24 0 -9 75 -42 226 -56 251 -13 25 -9 52 9 52 5 0 10 -8 10 -17 0 -10 5 -25
11 -33 7 -11 8 -6 4 20 -10 52 13 25 30 -36 l15 -49 -6 45 c-3 25 -13 56 -21
68 -17 28 -12 40 7 16 8 -8 22 -50 32 -92 12 -51 15 -60 11 -27 -4 28 -6 75
-6 105 0 30 -1 45 -4 32 -5 -27 -24 -25 -37 4 -9 20 -10 19 -37 -10 -15 -17
-30 -29 -33 -26 -11 11 -9 111 2 122 9 9 12 3 13 -28 1 -21 0 -46 -1 -54 -1
-8 2 -11 6 -7 5 5 7 37 5 73 -2 42 1 64 8 64 6 0 11 -22 12 -52 l1 -53 12 34
c8 22 15 31 20 23 4 -7 15 -12 26 -12 14 0 17 5 12 23 -5 18 -7 19 -10 5 -3
-14 -7 -16 -23 -8 -21 12 -26 40 -7 40 6 0 25 15 40 33 l29 32 -5 -55 c-4 -42
-3 -51 5 -36 7 11 8 42 4 85 -7 59 -9 63 -17 36 -19 -67 -86 -104 -81 -45 2
17 -5 10 -21 -24 -39 -78 -46 -79 -46 -2 0 62 2 67 16 55 14 -11 19 -10 35 10
11 13 19 28 19 33 0 6 -10 -2 -22 -17 -22 -28 -22 -28 -30 -6 -8 24 1 49 26
71 9 7 16 17 16 22 0 6 -6 5 -15 -2 -12 -10 -13 -7 -5 22 5 18 19 40 30 50 11
9 20 19 20 23 0 4 -7 2 -15 -5 -21 -17 -19 6 4 44 26 44 45 47 38 5 -6 -33 3
-21 17 24 8 25 25 21 32 -8 3 -14 10 -25 15 -25 5 0 3 12 -3 26 -10 21 -9 27
3 35 12 7 11 9 -3 9 -9 0 -24 3 -32 6 -12 5 -15 2 -10 -10 4 -12 0 -16 -15
-16 -27 0 -27 0 7 38 29 33 66 42 75 20 3 -7 6 -1 6 14 1 14 7 29 14 31 6 3
12 6 13 6 0 1 -2 -13 -4 -30z m2274 -56 c46 -49 45 -71 -2 -34 -32 25 -44 26
-44 6 0 -21 -17 -19 -30 5 -13 24 -23 25 -45 4 -15 -15 -17 -15 -22 6 -5 18
-11 12 -39 -41 -33 -61 -38 -91 -9 -53 14 19 14 18 15 -3 0 -12 -5 -34 -10
-49 -15 -39 -3 -43 25 -8 13 17 42 39 64 49 23 10 41 24 41 30 0 48 100 34
126 -17 17 -33 12 -35 -26 -8 -18 13 -31 17 -35 10 -3 -6 -23 -19 -43 -30 -20
-10 -30 -19 -22 -20 8 0 29 9 46 19 31 19 32 19 62 -2 28 -20 52 -55 52 -76 0
-24 -33 -17 -67 12 -24 21 -38 28 -41 19 -7 -23 -33 -41 -49 -35 -11 4 -14 3
-9 -5 10 -17 36 -15 57 4 17 15 20 15 46 -5 17 -14 35 -20 48 -17 17 4 25 -2
38 -30 21 -44 22 -65 2 -58 -21 9 -19 -10 5 -31 35 -32 41 -84 36 -302 -4
-199 -13 -274 -38 -336 -14 -36 -30 -22 -31 28 l-1 36 -18 -23 -18 -23 -1 30
c-1 17 -1 62 0 100 0 50 -2 64 -8 50 -5 -11 -10 -40 -10 -64 -1 -39 -6 -49
-47 -88 -25 -23 -50 -43 -55 -43 -12 0 0 59 20 93 16 27 37 38 28 14 -3 -8 -1
-20 4 -28 7 -10 9 -1 7 26 -3 34 -6 40 -23 37 -17 -3 -166 -20 -187 -21 -17
-2 -6 -22 17 -33 35 -16 32 -23 -18 -42 -56 -21 -79 -20 -127 4 -22 11 -40 17
-40 13 0 -5 16 -32 35 -61 l36 -52 -28 0 c-16 0 -48 12 -72 25 -24 14 -46 23
-48 21 -6 -6 16 -47 41 -75 l21 -24 -35 7 c-19 3 -54 20 -77 36 -49 34 -53 28
-18 -25 15 -20 24 -40 21 -42 -7 -7 -99 45 -129 73 -31 28 -34 19 -12 -33 8
-20 13 -39 9 -42 -8 -9 -34 30 -40 59 -12 62 -41 136 -61 158 -26 29 -28 38
-9 45 17 7 29 66 16 82 -5 6 -9 14 -7 16 1 2 -4 -2 -10 -10 -11 -13 -13 -13
-13 1 0 14 -5 15 -32 6 -55 -17 -88 -21 -88 -9 0 5 -10 15 -21 22 -20 10 -21
9 -17 -15 6 -28 -1 -33 -20 -14 -8 8 -15 8 -26 -1 -8 -7 -20 -10 -27 -6 -6 4
-15 2 -19 -5 -6 -10 -15 -6 -35 16 l-26 29 5 -26 c5 -25 4 -26 -26 -24 -31 2
-54 25 -26 25 9 1 8 3 -3 10 -9 5 -16 24 -17 45 -1 25 2 34 10 29 7 -5 9 -2 6
8 -4 8 2 21 13 29 17 12 19 22 15 64 -4 33 -3 43 3 30 8 -19 9 -18 13 5 l4 25
12 -28 c17 -40 64 -119 68 -114 2 2 0 18 -6 35 -5 21 -5 30 1 26 6 -3 7 4 3
20 -9 36 4 33 53 -16 46 -45 54 -61 26 -51 -14 4 -15 3 -7 -6 6 -6 18 -9 27
-6 14 6 14 10 1 40 -7 19 -10 36 -6 38 10 6 48 -9 57 -22 11 -19 35 -13 28 7
-6 16 -5 16 14 0 11 -10 25 -18 31 -18 15 0 16 26 2 35 -5 3 -10 1 -10 -6 0
-9 -3 -9 -14 0 -8 6 -19 10 -26 9 -7 -2 -15 3 -17 10 -3 6 0 12 6 12 6 0 11 7
11 15 0 8 -4 15 -10 15 -5 0 -10 7 -10 15 0 11 7 14 25 9 27 -7 35 10 10 20
-46 17 26 46 165 66 240 34 272 58 388 288 79 154 104 182 164 182 34 0 45 -7
84 -47z m-925 -309 c10 -12 10 -20 1 -35 -10 -16 -9 -22 8 -36 70 -60 83 -88
64 -137 -9 -23 -18 -20 -70 20 -66 50 -111 70 -171 78 -50 6 -77 -4 -52 -20 8
-4 9 -3 5 4 -14 23 11 11 78 -38 69 -51 102 -60 125 -37 10 10 11 9 6 -5 -4
-10 -16 -20 -26 -23 -24 -8 -93 24 -134 62 -17 15 -42 29 -55 30 -14 2 -49 6
-77 9 -36 4 -53 2 -53 -5 0 -6 -8 -11 -17 -11 -15 0 -13 4 7 20 36 27 106 42
174 36 52 -5 57 -4 45 10 -10 13 -10 17 2 25 18 11 26 11 34 -1 3 -5 -2 -10
-12 -11 -11 0 -13 -3 -5 -6 7 -3 22 3 34 13 11 11 33 19 49 20 41 2 50 14 11
14 -18 0 -32 5 -32 10 0 6 7 10 15 10 8 0 15 5 15 10 0 15 16 12 31 -6z m-426
-504 c55 -6 121 -13 148 -16 26 -3 55 -3 65 1 25 11 26 12 163 19 l127 7 4
-26 c4 -21 1 -27 -21 -33 -35 -9 -544 -9 -601 1 -42 7 -45 10 -45 37 0 28 2
30 30 25 17 -3 75 -10 130 -15z m-120 -76 c10 -15 13 -15 28 0 15 15 17 15 27
-4 13 -25 36 -26 49 -2 9 15 12 15 21 2 14 -21 12 -28 -7 -26 -24 2 -30 -34
-6 -40 15 -4 19 -16 21 -63 2 -45 -1 -60 -13 -65 -19 -7 -19 -35 0 -42 9 -4
15 -19 15 -41 0 -21 -4 -32 -10 -28 -6 4 -17 1 -25 -5 -20 -16 -19 -1 0 20 13
14 13 21 2 42 -10 20 -17 24 -29 17 -10 -6 -19 -6 -22 0 -4 5 3 12 13 16 17 5
19 10 9 30 -9 20 -14 22 -25 13 -7 -6 -17 -8 -21 -4 -4 4 1 12 11 17 20 12 22
32 4 48 -10 7 -17 7 -24 0 -8 -8 -13 -8 -17 0 -4 6 -2 11 4 11 6 0 10 10 8 23
-2 14 -9 21 -21 21 -19 -2 -22 7 -6 23 8 8 5 15 -10 25 -12 8 -18 18 -14 21
11 11 25 8 38 -9z m190 -23 c8 -16 26 -38 40 -49 l26 -21 -38 -35 c-33 -30
-38 -40 -38 -80 0 -39 5 -50 39 -85 l39 -40 -30 -25 c-45 -38 -58 -77 -39
-114 9 -17 27 -39 41 -50 32 -25 32 -32 -2 -32 -66 1 -71 22 -73 306 -1 131
-1 242 -1 247 2 17 22 5 36 -22z m356 -2 c16 -8 21 -6 27 10 7 19 7 19 31 0
22 -18 22 -19 3 -19 -28 0 -39 -20 -19 -35 10 -7 17 -16 17 -20 0 -5 -9 0 -19
9 -18 16 -20 16 -35 -5 -18 -26 -13 -39 15 -39 10 0 19 -4 19 -8 0 -18 -13
-20 -35 -6 -20 13 -23 13 -29 -2 -8 -20 12 -47 30 -40 10 4 11 -1 4 -17 -23
-60 -39 -90 -40 -76 0 25 -30 32 -52 13 -17 -16 -17 -19 -2 -35 13 -15 21 -16
38 -7 20 11 20 10 5 -12 -19 -29 -39 -37 -39 -16 0 24 -20 29 -41 10 -21 -18
-27 -6 -7 14 10 10 10 17 0 32 -11 18 -10 20 12 20 28 0 42 26 25 46 -9 11
-15 12 -26 3 -19 -17 -27 -5 -13 21 8 15 8 25 0 34 -8 10 -6 15 10 19 23 6 27
35 5 43 -8 4 -15 11 -15 16 0 6 6 5 15 -2 18 -15 45 -6 45 14 0 22 -17 28 -40
16 -25 -13 -28 4 -5 27 14 14 18 14 34 -1 24 -22 38 -20 47 7 4 12 9 17 11 9
3 -7 13 -17 24 -23z m-154 -201 c-4 -123 -7 -256 -7 -295 0 -73 0 -73 -27 -73
-16 0 -37 10 -50 23 l-22 23 40 37 c53 50 53 87 2 139 l-37 38 32 33 c63 64
63 126 0 178 l-31 26 36 37 c20 20 37 41 37 46 0 6 7 10 17 10 15 0 16 -19 10
-222z m326 130 c25 -57 41 -128 28 -128 -4 0 -18 11 -31 25 -12 13 -27 22 -31
19 -17 -10 -9 -22 26 -43 33 -19 65 -65 53 -77 -3 -3 -23 6 -43 21 -21 14 -42
25 -48 25 -5 0 5 -10 23 -22 18 -13 40 -33 48 -45 14 -22 13 -23 -16 -23 -17
0 -33 4 -36 9 -3 5 -16 11 -28 14 -22 6 -22 5 -4 -8 19 -14 18 -15 -12 -15
-22 0 -30 4 -26 14 6 16 -19 28 -41 20 -8 -4 -15 -12 -15 -20 0 -8 -4 -14 -10
-14 -14 0 -13 6 12 53 12 23 25 49 28 57 5 9 17 14 34 12 15 -2 26 2 26 8 0 6
-10 10 -22 8 -28 -4 -36 22 -8 29 16 4 20 11 16 28 -4 15 -1 25 10 29 10 4 13
13 9 27 -5 14 -1 25 12 34 10 8 19 15 21 15 1 0 13 -24 25 -52z m797 43 c0 -5
-4 -21 -10 -35 -5 -14 -7 -33 -3 -41 5 -14 8 -14 26 2 20 18 20 17 13 -12 l-6
-30 15 25 c10 18 14 20 15 8 0 -9 6 -18 13 -21 9 -3 9 -8 1 -18 -13 -17 -34
-89 -34 -117 0 -31 -74 -171 -120 -226 -22 -26 -40 -45 -40 -41 0 3 -18 -15
-40 -40 -22 -26 -38 -51 -35 -56 4 -5 -1 -9 -9 -9 -8 0 -18 -5 -22 -12 -5 -7
-3 -8 7 -3 7 5 -4 -12 -25 -38 -43 -53 -57 -61 -32 -19 17 26 17 26 -10 -3
-15 -16 -47 -52 -71 -80 -24 -27 -41 -41 -37 -30 12 35 76 126 107 153 112 99
217 224 217 258 0 6 6 14 13 17 6 3 21 19 31 37 10 18 14 30 7 26 -16 -11 -14
16 5 42 9 13 14 26 11 29 -3 2 -13 -9 -22 -26 -8 -17 -18 -31 -20 -31 -3 0 4
18 15 41 26 50 20 61 -10 20 -23 -33 -46 -42 -36 -15 4 12 -5 8 -29 -10 -25
-20 -33 -22 -28 -10 4 12 3 15 -5 10 -18 -11 -15 5 8 42 25 40 36 42 15 2 -21
-41 -19 -47 10 -20 13 12 22 27 19 32 -4 5 6 23 22 39 17 17 22 29 14 29 -9 0
-5 9 10 25 41 44 14 38 -30 -7 l-42 -43 35 50 c19 28 42 65 51 83 16 30 36 43
36 23z m-1610 -21 c0 -5 9 -10 20 -10 23 0 24 -3 8 -30 -11 -17 -10 -22 2 -30
8 -5 17 -7 21 -4 14 8 21 -17 9 -31 -9 -11 -7 -17 9 -26 14 -10 18 -20 14 -40
-4 -21 -1 -28 15 -33 12 -4 21 -18 24 -36 l5 -30 -96 0 c-91 1 -95 2 -71 16
26 16 14 13 -42 -9 -15 -6 -30 -8 -34 -4 -13 12 17 55 52 73 18 10 32 20 30
22 -2 2 -18 -4 -36 -13 -32 -16 -32 -16 -25 7 10 31 24 48 41 48 8 0 14 4 14
10 0 5 -7 7 -15 4 -22 -9 -18 8 10 46 14 19 25 44 25 57 0 13 5 23 10 23 6 0
10 -4 10 -10z m178 -292 c-9 -28 -99 -49 -193 -45 -90 4 -171 28 -159 48 3 5
84 9 180 9 136 0 175 -3 172 -12z m383 -11 c-16 -16 -14 -47 3 -47 7 0 19 6
25 14 9 10 18 11 45 2 27 -8 32 -13 24 -24 -16 -19 4 -34 36 -26 25 6 26 7 9
21 -16 13 -15 14 16 9 18 -3 42 -6 53 -6 10 0 16 -4 13 -10 -3 -5 -17 -10 -31
-10 -14 0 -39 -7 -55 -16 -17 -8 -36 -13 -42 -11 -7 3 -22 -5 -34 -16 -21 -19
-24 -19 -41 -4 -18 16 -20 16 -35 -1 -10 -10 -17 -25 -17 -33 0 -17 -19 -39
-33 -39 -5 0 -2 11 7 24 10 15 12 27 6 31 -6 3 -10 11 -10 16 0 6 4 8 10 4 10
-6 50 29 50 45 0 17 -31 24 -40 9 -5 -7 -12 -11 -15 -7 -4 3 -1 15 7 27 10 16
10 23 0 33 -18 18 -15 27 7 21 10 -3 22 0 26 6 3 6 11 8 17 5 6 -4 6 -10 -1
-17z m-595 -97 c45 -10 106 -31 136 -45 63 -30 73 -58 33 -95 -29 -27 -31 -49
-10 -90 15 -28 14 -29 -18 -39 -25 -9 -48 -32 -93 -97 -32 -47 -69 -98 -82
-114 -29 -37 -21 -75 20 -96 l30 -16 -36 -24 c-44 -30 -47 -58 -6 -72 19 -7
34 -23 44 -45 14 -34 15 -35 67 -32 40 2 57 8 70 24 10 11 27 21 38 21 16 0
23 -10 32 -44 6 -25 24 -56 40 -72 l28 -27 43 16 c24 10 47 17 51 17 4 0 7
-43 7 -96 l0 -95 -64 54 c-87 74 -167 121 -256 151 -80 26 -200 46 -281 46
l-49 0 0 401 0 402 88 -7 c48 -3 124 -15 168 -26z m1064 -293 c0 -178 -3 -358
-6 -399 l-7 -75 -96 -7 c-53 -4 -114 -11 -136 -16 -32 -7 -41 -6 -48 6 -5 8
-26 26 -48 39 -21 14 -39 32 -39 40 0 8 -8 19 -19 24 -17 10 -37 54 -32 74 1
4 -5 18 -14 30 -34 49 -9 114 45 117 14 0 45 2 70 3 55 2 70 11 70 41 0 13 7
29 15 36 8 7 15 19 15 26 0 16 36 19 45 4 11 -17 35 -11 61 15 22 22 24 28 12
42 -7 9 -17 30 -23 46 -11 32 -12 33 -88 68 -27 12 -60 32 -74 45 -21 19 -37
24 -80 24 -53 0 -54 -1 -69 -36 -14 -34 -17 -36 -51 -31 -71 12 -70 28 4 77
119 78 283 126 441 129 l52 1 0 -323z m-1468 66 c19 -32 20 -48 18 -409 l-1
-376 278 7 c293 7 363 2 446 -35 l42 -19 -388 0 -388 -1 1 396 1 395 -40 53
c-23 29 -41 57 -41 61 0 14 49 -37 72 -72z m207 -723 c92 0 204 -3 247 -6 43
-4 76 -3 72 1 -4 4 -112 11 -240 14 l-233 6 -3 304 c-1 168 -1 303 2 300 2 -2
6 -134 9 -294 3 -159 6 -291 6 -292 1 -2 63 -3 138 -3 75 0 134 2 132 5 -3 2
-62 5 -132 6 -78 1 -127 6 -127 12 0 14 249 2 384 -18 57 -9 127 -23 156 -33
l52 -18 -93 -1 c-52 0 -192 -5 -312 -12 -120 -6 -223 -9 -228 -6 -5 4 -8 146
-7 343 l3 337 2 -322 3 -323 169 0z m411 596 c61 -17 69 -18 156 -16 62 1 95
-9 162 -50 18 -11 31 -16 28 -12 -3 5 7 20 22 33 l27 24 -22 -25 c-12 -14 -21
-27 -20 -30 1 -3 -6 -16 -15 -28 -24 -34 -54 -25 -51 15 3 28 -1 33 -39 48
-41 16 -129 14 -127 -3 0 -4 19 -20 41 -37 23 -16 55 -51 72 -77 88 -134 94
-152 50 -156 -15 -1 -34 -8 -43 -14 -10 -8 -9 -4 3 10 17 19 17 22 3 22 -15 0
-14 3 4 21 14 14 18 27 13 42 -11 34 -59 101 -100 136 l-36 32 -24 -22 c-14
-13 -29 -19 -40 -15 -37 14 -46 -52 -12 -84 18 -16 20 -24 12 -38 -6 -9 -15
-16 -20 -15 -5 1 -18 -6 -29 -15 -11 -9 -14 -10 -7 -2 19 22 14 32 -9 20 -11
-7 -23 -9 -27 -6 -3 3 0 6 6 6 7 0 20 8 31 19 15 15 17 27 11 65 -4 26 -3 49
2 52 5 3 7 11 5 17 -2 7 -1 22 4 34 6 17 3 23 -19 31 -59 23 -73 24 -92 7 -23
-21 -50 -13 -50 14 0 23 16 30 50 20 14 -4 50 -14 80 -23z m990 -416 l0 -290
-387 0 c-222 0 -383 4 -378 9 6 5 35 17 65 27 49 17 88 19 370 19 l315 0 2
128 c1 75 -2 127 -8 127 -5 0 -9 -46 -8 -110 1 -61 -2 -115 -7 -120 -6 -6 -89
-6 -224 1 -118 6 -257 12 -307 13 -51 0 -88 3 -83 4 6 2 8 7 6 10 -2 4 8 7 22
8 15 1 61 8 102 17 94 20 280 37 385 36 122 -1 60 -15 -79 -18 -66 -1 -123 -5
-126 -7 -3 -3 61 -4 143 -2 95 2 146 -1 144 -7 -2 -6 -94 -12 -231 -16 -124
-3 -230 -10 -234 -14 -4 -4 29 -5 72 -1 43 3 152 6 242 6 l163 0 1 215 c0 187
3 218 17 235 10 11 19 20 20 20 2 0 3 -130 3 -290z m-1171 -50 c40 -11 90 -29
110 -39 l36 -19 -30 -8 -30 -7 35 -13 c45 -16 63 -16 26 0 -27 12 -27 13 -7
19 11 3 19 1 16 -3 -3 -5 4 -11 15 -15 11 -4 18 -10 15 -15 -3 -5 4 -12 16
-15 11 -4 19 -9 16 -11 -2 -2 -23 3 -48 11 -71 24 -215 45 -344 51 -141 6
-165 10 -165 27 0 16 222 5 334 -17 44 -9 81 -14 84 -12 12 12 -220 46 -320
46 -68 0 -103 10 -81 23 5 3 64 1 133 -4 106 -7 175 -20 296 -54 10 -3 4 2
-15 10 -57 27 -151 47 -281 61 l-125 13 120 -4 c83 -2 143 -10 194 -25z m361
-315 c0 -25 5 -45 10 -45 6 0 10 20 10 45 0 45 0 45 35 45 34 0 35 -1 35 -40
0 -27 -13 -67 -41 -122 l-41 -81 -44 81 c-31 58 -44 93 -44 122 l0 40 40 0 40
0 0 -45z m-784 -100 c3 -6 -9 -40 -25 -75 -23 -48 -28 -67 -19 -77 22 -27 43
-13 77 52 19 36 37 65 39 65 3 0 44 -21 50 -25 6 -5 -67 -141 -83 -155 -34
-28 -122 -3 -146 42 -19 36 -13 70 26 135 29 49 40 60 56 56 12 -3 23 -11 25
-18z m263 -106 l31 -11 0 -113 0 -113 -30 11 c-17 6 -30 20 -32 31 -4 29 -53
45 -74 24 -13 -13 -22 -14 -45 -6 -16 5 -29 12 -29 15 0 3 15 22 33 43 17 20
48 58 67 83 19 25 38 46 41 47 3 0 20 -5 38 -11z m199 -58 c1 -3 15 -33 31
-66 l28 -60 12 58 c12 57 26 69 58 49 17 -11 -17 -208 -35 -206 -7 1 -20 2
-30 3 -12 0 -29 22 -47 61 -16 33 -32 60 -36 60 -4 0 -10 -22 -14 -50 -7 -51
-21 -62 -54 -41 -13 8 -12 23 4 111 l18 101 31 -7 c17 -3 32 -9 34 -13z m556
-63 c11 -99 8 -136 -16 -158 -28 -25 -59 -25 -100 0 -18 11 -26 20 -17 20 9 0
22 12 29 26 12 22 12 27 0 34 -12 7 -10 12 8 28 15 13 22 31 22 54 0 42 5 48
40 48 25 0 28 -4 34 -52z m-197 -58 c17 -52 32 -101 32 -107 1 -8 -11 -13 -30
-13 -22 0 -32 5 -36 20 -8 29 -78 29 -86 0 -5 -20 -32 -26 -55 -12 -10 7 -5
29 23 101 19 51 38 97 41 103 3 5 22 8 42 6 l37 -3 32 -95z"/>
<path d="M918 2700 c4 -3 8 -13 10 -24 3 -15 -1 -17 -23 -12 l-26 7 22 -33
c22 -33 97 -90 136 -102 13 -4 29 0 44 13 30 24 18 38 -18 22 -24 -10 -26 -10
-10 2 26 21 21 27 -20 27 l-38 1 38 14 c43 15 53 22 44 31 -4 4 -32 -3 -63
-15 -62 -23 -74 -25 -74 -12 0 5 24 17 52 27 43 14 49 19 33 25 -18 7 -18 8
-2 8 10 1 17 7 14 14 -2 8 -25 12 -64 12 -34 0 -58 -2 -55 -5z"/>
<path d="M3187 2704 c-31 -51 -60 -57 -65 -13 -3 29 -41 53 -67 42 -23 -8 -13
-25 28 -48 36 -19 48 -35 27 -35 -6 0 -28 12 -50 26 -37 24 -60 25 -60 3 0 -6
8 -8 18 -4 11 3 30 -3 46 -16 33 -26 27 -37 -8 -14 -27 18 -56 14 -56 -7 0 -8
15 -20 33 -27 23 -10 27 -15 15 -18 -9 -2 -27 1 -39 7 -27 15 -54 -4 -29 -20
13 -9 13 -10 0 -10 -8 -1 10 -14 40 -30 44 -23 50 -29 30 -29 -14 0 -43 11
-65 24 -42 26 -55 30 -55 17 0 -4 17 -18 38 -31 l37 -22 -34 5 c-29 5 -32 4
-21 -9 15 -18 -1 -20 -18 -3 -20 20 -26 -1 -7 -22 24 -26 45 -25 103 4 61 31
69 40 77 99 7 45 25 76 25 43 0 -27 15 -18 29 17 7 17 15 27 17 22 4 -10 -16
-93 -31 -127 -4 -11 -3 -18 3 -18 6 0 16 16 22 36 17 49 23 36 10 -20 -6 -28
-7 -54 -2 -63 7 -11 11 -1 16 36 6 49 18 64 30 39 4 -7 3 -2 0 12 -16 64 0
111 21 63 5 -13 13 -23 17 -23 14 0 8 37 -7 50 -8 7 -15 19 -15 26 0 21 -21
17 -27 -6 -3 -11 -9 -20 -14 -20 -4 0 -1 23 7 51 9 28 14 53 12 55 -2 1 -16
-17 -31 -42z"/>
<path d="M1409 1572 c-9 -2 -19 -15 -22 -30 -6 -33 -2 -39 18 -22 10 8 15 9
15 1 0 -19 42 -12 47 8 5 19 33 19 33 -1 0 -5 -4 -6 -10 -3 -5 3 -10 1 -10 -4
0 -15 27 -14 36 1 4 6 -1 17 -11 25 -18 12 -18 13 3 13 17 0 22 -6 22 -25 0
-14 5 -25 10 -25 6 0 10 11 10 25 0 14 4 25 9 25 6 0 8 -9 6 -20 -2 -11 0 -22
6 -25 5 -4 9 -1 9 6 0 8 3 9 13 0 10 -8 127 -13 127 -5 0 1 -5 15 -11 33 -13
36 -26 40 -38 9 l-8 -22 -5 21 c-4 16 -12 21 -33 18 -15 -1 -31 -9 -36 -16 -7
-11 -9 -11 -9 2 0 13 -10 16 -47 14 -84 -4 -83 -3 -83 -32 0 -30 -16 -21 -22
12 -2 13 -9 19 -19 17z"/>
<path d="M1151 3534 c-1 -28 -36 -71 -71 -89 -39 -20 -79 -19 -117 5 -29 18
-33 18 -33 3 0 -9 -7 -24 -15 -33 -13 -14 -13 -19 0 -44 14 -26 14 -27 -1 -15
-14 11 -19 10 -34 -9 -12 -15 -20 -18 -23 -10 -2 8 -8 9 -13 4 -5 -5 -5 -10 1
-13 36 -13 39 -22 20 -43 -13 -14 -26 -19 -41 -16 -28 8 -68 -34 -59 -63 4
-15 -1 -24 -20 -37 -14 -9 -27 -15 -29 -13 -2 2 -11 18 -20 34 -10 17 -14 21
-10 10 14 -39 10 -97 -8 -108 -13 -9 -26 -3 -65 29 -75 61 -93 72 -38 22 64
-59 68 -91 18 -165 -40 -58 -38 -58 -114 0 -59 44 -81 55 -42 20 60 -54 108
-84 125 -80 9 3 19 0 21 -7 3 -6 10 1 17 17 7 15 17 27 22 27 4 0 8 9 8 21 0
11 4 18 9 14 5 -3 24 17 42 45 18 27 37 50 42 50 6 0 7 3 4 6 -3 4 5 16 19 27
14 10 23 25 20 33 -3 8 0 11 8 8 15 -6 79 63 71 76 -4 6 1 7 11 3 12 -4 15 -3
10 5 -5 8 0 12 14 12 13 0 24 10 31 26 5 15 12 24 16 21 3 -4 22 6 42 21 20
15 53 39 73 52 24 16 33 27 25 32 -8 5 -6 8 6 8 9 0 17 4 17 9 0 5 8 7 19 4
10 -3 23 1 27 9 8 12 10 17 13 36 0 5 11 19 23 32 16 17 18 22 6 17 -11 -4
-18 0 -21 11 -4 13 -5 12 -6 -4z"/>
<path d="M3665 3061 c6 -20 4 -23 -9 -18 -10 4 -14 3 -11 -2 3 -5 -4 -13 -16
-16 -11 -4 -18 -9 -15 -12 3 -3 -9 -17 -25 -31 -23 -19 -29 -30 -25 -48 4 -14
2 -24 -4 -24 -5 0 -10 5 -10 10 0 6 -5 10 -11 10 -5 0 -8 -4 -5 -9 4 -5 0 -12
-6 -14 -9 -4 -9 -6 1 -6 12 -1 11 -4 -3 -14 -16 -12 -16 -13 3 -13 12 0 21 3
21 7 0 4 12 9 28 12 49 11 58 22 40 49 -11 16 -12 25 -5 25 7 0 22 3 34 7 19
6 26 -2 57 -64 l36 -70 -26 -12 c-22 -10 -28 -10 -40 6 -13 18 -16 17 -86 -18
l-72 -36 -11 27 c-8 18 -14 23 -19 15 -4 -7 -2 -12 3 -12 6 0 11 -6 11 -12 1
-36 16 -39 63 -12 l47 26 38 -41 c35 -38 42 -41 89 -41 49 0 52 -2 63 -32 11
-32 10 -34 -46 -83 -32 -27 -74 -65 -93 -83 l-36 -33 33 16 c17 8 32 20 32 24
0 5 22 25 48 45 36 26 55 33 72 29 22 -6 23 -7 4 -14 -17 -7 -16 -8 6 -8 14
-1 31 -10 38 -22 7 -12 16 -18 19 -15 4 3 12 1 20 -5 10 -9 13 -8 13 4 0 9 -4
18 -9 21 -5 3 -9 16 -9 28 0 31 -60 184 -115 293 -48 95 -124 208 -112 166z"/>
<path d="M3778 1225 c0 -11 -2 -26 -2 -32 -1 -7 -8 -21 -15 -32 -11 -15 -19
-17 -38 -10 -14 5 -23 5 -23 -1 0 -6 6 -10 14 -10 8 0 18 -5 22 -12 4 -7 3 -8
-5 -4 -7 5 -20 -1 -30 -13 -26 -29 -30 -26 -27 17 2 34 5 37 29 35 15 -1 27 2
27 8 0 6 5 7 11 3 7 -4 10 -1 7 7 -3 8 -10 15 -16 15 -7 1 -19 2 -27 3 -8 0
-15 8 -15 17 0 8 -5 12 -10 9 -7 -4 -7 -13 0 -26 7 -13 7 -19 0 -19 -5 0 -10
4 -10 9 0 5 -7 12 -16 15 -8 3 -12 2 -9 -4 3 -6 3 -10 -2 -10 -4 0 -14 -15
-22 -32 -8 -18 -17 -35 -21 -38 -3 -3 -17 -22 -29 -43 -33 -54 -13 -72 24 -23
30 40 40 44 49 20 4 -10 0 -18 -13 -21 -11 -3 -18 -10 -17 -16 2 -7 1 -9 -1
-4 -10 16 -24 6 -18 -13 9 -29 -31 -27 -46 2 -8 14 -14 18 -17 10 -2 -6 -8
-10 -12 -7 -5 3 -12 0 -16 -6 -4 -8 -3 -9 4 -5 7 4 12 3 12 -1 0 -5 14 -14 30
-20 17 -6 30 -17 30 -23 0 -10 -3 -10 -15 0 -10 9 -15 9 -15 1 0 -6 -7 -11
-16 -11 -8 0 -13 4 -10 9 7 11 -22 36 -31 28 -3 -4 -1 -12 4 -19 6 -8 7 -22 2
-33 -6 -17 -8 -17 -8 -2 -1 24 -21 22 -21 -3 0 -11 -5 -20 -11 -20 -6 0 -8 10
-4 23 3 13 -3 8 -14 -13 -34 -59 -34 -62 -20 -71 12 -7 12 -9 -1 -9 -13 0 -13
-1 0 -10 12 -8 9 -10 -12 -10 -24 0 -28 -4 -29 -27 0 -28 0 -28 -11 -5 -6 12
-16 21 -22 19 -17 -6 -10 -69 9 -80 14 -8 15 -11 4 -18 -11 -7 -10 -9 4 -9 10
0 17 -8 17 -20 0 -11 6 -19 12 -18 7 2 14 -7 16 -19 2 -13 7 -23 11 -23 16 0
165 171 217 248 65 97 168 300 166 326 -2 28 -22 45 -24 21z"/>
</g>
</svg>
